<svg width="21" height="20" viewBox="0 0 21 20" fill="none" xmlns="http://www.w3.org/2000/svg">
<path d="M17.1666 16.2503V16.667C17.1666 17.109 16.991 17.5329 16.6784 17.8455C16.3659 18.1581 15.9419 18.3337 15.4999 18.3337H5.49992C5.05789 18.3337 4.63397 18.1581 4.32141 17.8455C4.00885 17.5329 3.83325 17.109 3.83325 16.667V3.33366C3.83325 2.89163 4.00885 2.46771 4.32141 2.15515C4.63397 1.84259 5.05789 1.66699 5.49992 1.66699H12.5833L15.4999 4.58366" stroke="#64748B" stroke-width="2" stroke-linecap="round" stroke-linejoin="round"/>
<path d="M7.16675 15H8.00008" stroke="#64748B" stroke-width="2" stroke-linecap="round" stroke-linejoin="round"/>
<path d="M15.8499 8.00868C16.0124 7.84617 16.2054 7.71726 16.4177 7.62931C16.63 7.54136 16.8576 7.49609 17.0874 7.49609C17.3172 7.49609 17.5448 7.54136 17.7571 7.62931C17.9695 7.71726 18.1624 7.84617 18.3249 8.00868C18.4874 8.17119 18.6163 8.36412 18.7043 8.57645C18.7922 8.78878 18.8375 9.01636 18.8375 9.24618C18.8375 9.47601 18.7922 9.70358 18.7043 9.91591C18.6163 10.1282 18.4874 10.3212 18.3249 10.4837L14.6249 14.167L11.3333 15.0003L12.1583 11.7087L15.8499 8.00868Z" stroke="#64748B" stroke-width="2" stroke-linecap="round" stroke-linejoin="round"/>
</svg>
